# xmcd
#
# Track frame offsets:
#	183
#	10305
#	20705
#	31475
#	42278
#	52100
#	61278
#	71598
#	81983
#	93705
#	103693
#	114555
#	125590
#	138148
#	149395
#	158155
#	169850
#	177930
#	188398
#	199098
#	209633
#	220235
#	228990
#	239535
#
# Disc length: 3320 seconds
#
# Revision: 1
# Processed by: cddbd v1.5.2PL0 Copyright (c) Steve Scherf et al.
# Submitted via: audiograbber 1.83.01
#
DISCID=630cf618
DTITLE=Conway Twitty - Sings  and Saturday Night With Conway Twitty
DYEAR=1959
DGENRE=Rock And Roll
TTITLE0=It's Only Make Believe
TTITLE1=Hallelujah I Love Her So
TTITLE2=First Romance
TTITLE3=Mahe Me Know You're Mine
TTITLE4=Sentimental Journey
TTITLE5=I Vibrate (From My Head To My Feet)
TTITLE6=The Story Of My Love
TTITLE7=I'll Try
TTITLE8=You'll Never Walk Alone
TTITLE9=Don't You Know
TTITLE10=My One And Only You
TTITLE11=Mona Lisa
TTITLE12=Danny Boy
TTITLE13=Heavenly
TTITLE14=She's Mine
TTITLE15=Blueberry Hill
TTITLE16=Hey Little Lucy
TTITLE17=Haldway To Heaven
TTITLE18=Hey Miss Ruby
TTITLE19=You Win Again
TTITLE20=Restless
TTITLE21=Beachcomber
TTITLE22=Judge Of Hearts
TTITLE23=Goin' Home
EXTD=
EXTT0=
EXTT1=
EXTT2=
EXTT3=
EXTT4=
EXTT5=
EXTT6=
EXTT7=
EXTT8=
EXTT9=
EXTT10=
EXTT11=
EXTT12=
EXTT13=
EXTT14=
EXTT15=
EXTT16=
EXTT17=
EXTT18=
EXTT19=
EXTT20=
EXTT21=
EXTT22=
EXTT23=
PLAYORDER=
